<?xml version="1.0" encoding="utf-8"?>
<!-- Generator: Adobe Illustrator 26.3.1, SVG Export Plug-In . SVG Version: 6.00 Build 0)  -->
<svg version="1.1" id="Layer_1" xmlns="http://www.w3.org/2000/svg" xmlns:xlink="http://www.w3.org/1999/xlink" x="0px" y="0px"
	 viewBox="0 0 32 32" style="enable-background:new 0 0 32 32;" xml:space="preserve">
<style type="text/css">
	.st0{fill:#EC874B;}
	.st1{fill:#FDC238;}
	.st2{fill:#FDE198;}
	.st3{fill:#D37800;}
	.st4{fill:#F99B21;}
</style>
<g>
	<g>
		<circle class="st0" cx="16" cy="16" r="15.68"/>
	</g>
	<g>
		<circle class="st1" cx="16" cy="16" r="14.5"/>
	</g>
	<g>
		<path class="st2" d="M13.55,3.15c0.11,0.43-0.14,0.78-0.65,0.92l-0.39,0.1l0.14,0.53l-0.44,0.12L11.7,2.89l0.83-0.22
			C13.04,2.53,13.43,2.71,13.55,3.15z M13.1,3.27c-0.06-0.21-0.23-0.3-0.5-0.23l-0.36,0.1l0.18,0.67l0.36-0.1
			C13.05,3.63,13.15,3.47,13.1,3.27z"/>
		<path class="st2" d="M15.2,3.81l-0.92,0.09l-0.13,0.44l-0.47,0.05l0.68-2.07l0.45-0.05l1.09,1.89l-0.48,0.05L15.2,3.81z
			 M15.02,3.48l-0.39-0.72L14.4,3.54L15.02,3.48z"/>
		<path class="st2" d="M17.35,3.25l0.42,0.03l-0.05,0.81c-0.23,0.15-0.54,0.22-0.82,0.2c-0.62-0.04-1.06-0.5-1.02-1.1
			c0.04-0.6,0.53-1,1.16-0.96c0.35,0.02,0.63,0.16,0.81,0.4l-0.31,0.25c-0.13-0.16-0.3-0.24-0.5-0.26
			c-0.39-0.02-0.67,0.22-0.69,0.59c-0.02,0.37,0.22,0.65,0.6,0.68c0.12,0.01,0.24-0.01,0.36-0.06L17.35,3.25z"/>
		<path class="st2" d="M18.06,3.34c0.14-0.57,0.7-0.89,1.31-0.74c0.61,0.15,0.95,0.69,0.81,1.26c-0.14,0.58-0.7,0.89-1.31,0.74
			C18.26,4.45,17.92,3.92,18.06,3.34z M19.72,3.76c0.09-0.37-0.11-0.68-0.45-0.77c-0.34-0.09-0.67,0.1-0.76,0.47
			c-0.09,0.37,0.11,0.68,0.45,0.77C19.31,4.31,19.63,4.12,19.72,3.76z"/>
	</g>
	<g>
		<circle class="st3" cx="16" cy="16" r="10.92"/>
	</g>
	<g>
		<circle class="st4" cx="16" cy="16" r="9.86"/>
	</g>
	<g>
		<g>
			<g>
				<path class="st2" d="M13.37,15.94c-0.12,0-0.22,0.1-0.22,0.22c0,0.12,0.1,0.22,0.22,0.22s0.22-0.1,0.22-0.22
					C13.59,16.04,13.49,15.94,13.37,15.94z M18.63,15.94c-0.12,0-0.22,0.1-0.22,0.22c0,0.12,0.1,0.22,0.22,0.22
					c0.12,0,0.22-0.1,0.22-0.22C18.85,16.04,18.75,15.94,18.63,15.94z M18.63,15.94c-0.12,0-0.22,0.1-0.22,0.22
					c0,0.12,0.1,0.22,0.22,0.22c0.12,0,0.22-0.1,0.22-0.22C18.85,16.04,18.75,15.94,18.63,15.94z M13.37,15.94
					c-0.12,0-0.22,0.1-0.22,0.22c0,0.12,0.1,0.22,0.22,0.22s0.22-0.1,0.22-0.22C13.59,16.04,13.49,15.94,13.37,15.94z M13.37,15.94
					c-0.12,0-0.22,0.1-0.22,0.22c0,0.12,0.1,0.22,0.22,0.22s0.22-0.1,0.22-0.22C13.59,16.04,13.49,15.94,13.37,15.94z M18.63,15.94
					c-0.12,0-0.22,0.1-0.22,0.22c0,0.12,0.1,0.22,0.22,0.22c0.12,0,0.22-0.1,0.22-0.22C18.85,16.04,18.75,15.94,18.63,15.94z
					 M18.63,15.94c-0.12,0-0.22,0.1-0.22,0.22c0,0.12,0.1,0.22,0.22,0.22c0.12,0,0.22-0.1,0.22-0.22
					C18.85,16.04,18.75,15.94,18.63,15.94z M13.37,15.94c-0.12,0-0.22,0.1-0.22,0.22c0,0.12,0.1,0.22,0.22,0.22s0.22-0.1,0.22-0.22
					C13.59,16.04,13.49,15.94,13.37,15.94z M20.81,13.99c-0.06,0.08-0.13,0.16-0.22,0.23c-0.56,0.44-2.4,0.8-4.11,0.8
					c-0.06,0-0.13,0-0.19,0c-2.45-0.04-4.18-0.35-4.73-0.86c-0.11-0.1-0.19-0.2-0.27-0.29c-0.69,0.91-1.09,2.03-1.09,3.24
					c0,3.07,2.6,5.55,5.81,5.55c3.21,0,5.8-2.49,5.8-5.55C21.8,15.96,21.44,14.88,20.81,13.99z M13.18,17.11
					c-0.4,0-0.73-0.32-0.73-0.72c0-0.4,0.32-0.73,0.73-0.73s0.73,0.32,0.73,0.73C13.91,16.78,13.58,17.11,13.18,17.11z M16,20.34
					c-0.88,0-1.59-0.71-1.59-1.59h3.17C17.59,19.63,16.88,20.34,16,20.34z M18.82,17.11c-0.4,0-0.73-0.32-0.73-0.72
					c0-0.4,0.32-0.73,0.73-0.73c0.4,0,0.72,0.32,0.72,0.73C19.54,16.78,19.22,17.11,18.82,17.11z M18.63,15.94
					c-0.12,0-0.22,0.1-0.22,0.22c0,0.12,0.1,0.22,0.22,0.22c0.12,0,0.22-0.1,0.22-0.22C18.85,16.04,18.75,15.94,18.63,15.94z
					 M13.37,15.94c-0.12,0-0.22,0.1-0.22,0.22c0,0.12,0.1,0.22,0.22,0.22s0.22-0.1,0.22-0.22C13.59,16.04,13.49,15.94,13.37,15.94z
					 M13.37,15.94c-0.12,0-0.22,0.1-0.22,0.22c0,0.12,0.1,0.22,0.22,0.22s0.22-0.1,0.22-0.22C13.59,16.04,13.49,15.94,13.37,15.94z
					 M18.63,15.94c-0.12,0-0.22,0.1-0.22,0.22c0,0.12,0.1,0.22,0.22,0.22c0.12,0,0.22-0.1,0.22-0.22
					C18.85,16.04,18.75,15.94,18.63,15.94z M18.63,15.94c-0.12,0-0.22,0.1-0.22,0.22c0,0.12,0.1,0.22,0.22,0.22
					c0.12,0,0.22-0.1,0.22-0.22C18.85,16.04,18.75,15.94,18.63,15.94z M13.37,15.94c-0.12,0-0.22,0.1-0.22,0.22
					c0,0.12,0.1,0.22,0.22,0.22s0.22-0.1,0.22-0.22C13.59,16.04,13.49,15.94,13.37,15.94z M13.37,15.94c-0.12,0-0.22,0.1-0.22,0.22
					c0,0.12,0.1,0.22,0.22,0.22s0.22-0.1,0.22-0.22C13.59,16.04,13.49,15.94,13.37,15.94z M13.37,15.94c-0.12,0-0.22,0.1-0.22,0.22
					c0,0.12,0.1,0.22,0.22,0.22s0.22-0.1,0.22-0.22C13.59,16.04,13.49,15.94,13.37,15.94z"/>
			</g>
			<g>
				<g>
					<path class="st2" d="M13.59,16.16c0,0.12-0.1,0.22-0.22,0.22s-0.22-0.1-0.22-0.22c0-0.12,0.1-0.22,0.22-0.22
						S13.59,16.04,13.59,16.16z"/>
				</g>
				<g>
					<path class="st2" d="M18.85,16.16c0,0.12-0.1,0.22-0.22,0.22c-0.12,0-0.22-0.1-0.22-0.22c0-0.12,0.1-0.22,0.22-0.22
						C18.75,15.94,18.85,16.04,18.85,16.16z"/>
				</g>
			</g>
			<g>
				<g>
					<path class="st2" d="M13.59,16.16c0,0.12-0.1,0.22-0.22,0.22s-0.22-0.1-0.22-0.22c0-0.12,0.1-0.22,0.22-0.22
						S13.59,16.04,13.59,16.16z"/>
				</g>
				<g>
					<path class="st2" d="M18.85,16.16c0,0.12-0.1,0.22-0.22,0.22c-0.12,0-0.22-0.1-0.22-0.22c0-0.12,0.1-0.22,0.22-0.22
						C18.75,15.94,18.85,16.04,18.85,16.16z"/>
				</g>
			</g>
		</g>
		<g>
			<path class="st2" d="M20.61,13.74c-0.05,0.09-0.12,0.17-0.22,0.25c-0.5,0.39-2.4,0.76-4.1,0.73c-2.92-0.05-4.19-0.46-4.54-0.78
				c-0.12-0.11-0.21-0.21-0.27-0.32v0c-0.27-0.4-0.22-0.74-0.22-0.74s0,0,0.01,0.01c0-0.03,0-0.05,0.01-0.08
				c0.03-0.09,0.14-0.2,0.21-0.26c0.29-0.23,0.76-0.29,1.11-0.33c0.08-0.94,0.22-2.09,0.47-2.3c1.02-0.85,5.05-0.7,5.62,0.03
				c0.3,0.38,0.51,1.48,0.64,2.41c0.01,0,0.01,0,0.02,0c0.39,0.06,1.33,0.09,1.37,0.6c0,0.04,0,0.08,0,0.12
				C20.73,13.08,20.8,13.42,20.61,13.74z"/>
		</g>
	</g>
</g>
</svg>
